<mxfile host="app.diagrams.net" modified="2021-07-20T08:02:11.499Z" agent="5.0 (Windows NT 10.0; Win64; x64) AppleWebKit/537.36 (KHTML, like Gecko) Chrome/91.0.4472.164 Safari/537.36" etag="xG0I7aBC_b9cVvOt3yrG" version="14.9.0" type="github">
  <diagram name="Page-1" id="13e1069c-82ec-6db2-03f1-153e76fe0fe0">
    <mxGraphModel dx="1154" dy="594" grid="1" gridSize="10" guides="1" tooltips="1" connect="1" arrows="1" fold="1" page="1" pageScale="1" pageWidth="1100" pageHeight="850" background="none" math="0" shadow="0">
      <root>
        <mxCell id="0" />
        <mxCell id="1" parent="0" />
        <mxCell id="7baba1c4bc27f4b0-2" value="条件筛选模块&lt;br&gt;资料展示模块" style="shape=umlLifeline;perimeter=lifelinePerimeter;whiteSpace=wrap;html=1;container=1;collapsible=0;recursiveResize=0;outlineConnect=0;rounded=1;shadow=0;comic=0;labelBackgroundColor=none;strokeWidth=1;fontFamily=Verdana;fontSize=12;align=center;" parent="1" vertex="1">
          <mxGeometry x="240" y="80" width="110" height="580" as="geometry" />
        </mxCell>
        <mxCell id="7baba1c4bc27f4b0-10" value="FilterPlate&lt;br&gt;病例筛选" style="html=1;points=[];perimeter=orthogonalPerimeter;rounded=0;shadow=0;comic=0;labelBackgroundColor=none;strokeWidth=1;fontFamily=Verdana;fontSize=12;align=center;" parent="7baba1c4bc27f4b0-2" vertex="1">
          <mxGeometry x="22.5" y="90" width="65" height="70" as="geometry" />
        </mxCell>
        <mxCell id="7baba1c4bc27f4b0-8" value="App" style="shape=umlLifeline;perimeter=lifelinePerimeter;whiteSpace=wrap;html=1;container=1;collapsible=0;recursiveResize=0;outlineConnect=0;rounded=1;shadow=0;comic=0;labelBackgroundColor=none;strokeWidth=1;fontFamily=Verdana;fontSize=12;align=center;" parent="1" vertex="1">
          <mxGeometry x="100" y="80" width="110" height="580" as="geometry" />
        </mxCell>
        <mxCell id="7baba1c4bc27f4b0-9" value="MiniPA&lt;br&gt;左栏筛选" style="html=1;points=[];perimeter=orthogonalPerimeter;rounded=0;shadow=0;comic=0;labelBackgroundColor=none;strokeWidth=1;fontFamily=Verdana;fontSize=12;align=center;" parent="7baba1c4bc27f4b0-8" vertex="1">
          <mxGeometry x="22.5" y="190" width="65" height="50" as="geometry" />
        </mxCell>
        <mxCell id="7baba1c4bc27f4b0-40" value="app主页" style="shape=note;whiteSpace=wrap;html=1;size=14;verticalAlign=middle;align=center;spacingTop=-6;rounded=0;shadow=0;comic=0;labelBackgroundColor=none;strokeWidth=1;fontFamily=Verdana;fontSize=12;" parent="1" vertex="1">
          <mxGeometry x="100" y="30" width="100" height="35" as="geometry" />
        </mxCell>
        <mxCell id="CF_FWANQ5Wj2ceeT_asj-1" value="用户" style="shape=umlActor;verticalLabelPosition=bottom;verticalAlign=top;html=1;outlineConnect=0;" parent="1" vertex="1">
          <mxGeometry x="20" y="20" width="30" height="60" as="geometry" />
        </mxCell>
        <mxCell id="CF_FWANQ5Wj2ceeT_asj-2" value="" style="html=1;points=[];perimeter=orthogonalPerimeter;rounded=0;shadow=0;comic=0;labelBackgroundColor=none;strokeWidth=1;fontFamily=Verdana;fontSize=12;align=center;" parent="1" vertex="1">
          <mxGeometry x="30" y="180" width="10" height="250" as="geometry" />
        </mxCell>
        <mxCell id="CF_FWANQ5Wj2ceeT_asj-5" value="" style="endArrow=none;dashed=1;html=1;" parent="1" source="CF_FWANQ5Wj2ceeT_asj-2" edge="1">
          <mxGeometry width="50" height="50" relative="1" as="geometry">
            <mxPoint x="20" y="170" as="sourcePoint" />
            <mxPoint x="35" y="100" as="targetPoint" />
          </mxGeometry>
        </mxCell>
        <mxCell id="CF_FWANQ5Wj2ceeT_asj-6" value="登录" style="html=1;verticalAlign=bottom;endArrow=block;labelBackgroundColor=none;fontFamily=Verdana;fontSize=12;edgeStyle=elbowEdgeStyle;elbow=vertical;" parent="1" target="7baba1c4bc27f4b0-8" edge="1">
          <mxGeometry relative="1" as="geometry">
            <mxPoint x="40" y="240" as="sourcePoint" />
            <mxPoint x="120" y="250" as="targetPoint" />
            <Array as="points">
              <mxPoint x="100" y="240" />
              <mxPoint x="70" y="230" />
            </Array>
          </mxGeometry>
        </mxCell>
        <mxCell id="CF_FWANQ5Wj2ceeT_asj-11" value="输入账号、密码" style="text;html=1;align=center;verticalAlign=middle;resizable=0;points=[];autosize=1;strokeColor=none;" parent="1" vertex="1">
          <mxGeometry x="50" y="200" width="100" height="20" as="geometry" />
        </mxCell>
        <mxCell id="CF_FWANQ5Wj2ceeT_asj-12" value="" style="endArrow=classic;html=1;exitX=1.054;exitY=0.538;exitDx=0;exitDy=0;exitPerimeter=0;" parent="1" source="7baba1c4bc27f4b0-9" target="7baba1c4bc27f4b0-2" edge="1">
          <mxGeometry width="50" height="50" relative="1" as="geometry">
            <mxPoint x="310" y="230" as="sourcePoint" />
            <mxPoint x="360" y="180" as="targetPoint" />
          </mxGeometry>
        </mxCell>
        <mxCell id="CF_FWANQ5Wj2ceeT_asj-13" value="加载子组件" style="edgeLabel;html=1;align=center;verticalAlign=middle;resizable=0;points=[];" parent="CF_FWANQ5Wj2ceeT_asj-12" vertex="1" connectable="0">
          <mxGeometry x="0.2978" y="-3" relative="1" as="geometry">
            <mxPoint x="-14" y="-16" as="offset" />
          </mxGeometry>
        </mxCell>
        <mxCell id="CF_FWANQ5Wj2ceeT_asj-14" value="PatientCard&lt;br&gt;病例资料卡" style="html=1;points=[];perimeter=orthogonalPerimeter;rounded=0;shadow=0;comic=0;labelBackgroundColor=none;strokeWidth=1;fontFamily=Verdana;fontSize=12;align=center;" parent="1" vertex="1">
          <mxGeometry x="256.25" y="385" width="77.5" height="115" as="geometry" />
        </mxCell>
        <mxCell id="CF_FWANQ5Wj2ceeT_asj-16" value="ws/app/patient/query" style="endArrow=classic;html=1;startArrow=none;" parent="1" source="7baba1c4bc27f4b0-10" edge="1">
          <mxGeometry width="50" height="50" relative="1" as="geometry">
            <mxPoint x="390" y="137.3529411764706" as="sourcePoint" />
            <mxPoint x="550" y="190" as="targetPoint" />
          </mxGeometry>
        </mxCell>
        <mxCell id="CF_FWANQ5Wj2ceeT_asj-18" value="webServer" style="rounded=1;whiteSpace=wrap;html=1;gradientColor=none;align=center;verticalAlign=middle;" parent="1" vertex="1">
          <mxGeometry x="515" y="50" width="70" height="90" as="geometry" />
        </mxCell>
        <mxCell id="GgmhdhTbTPwPxOHPuyEN-7" value="App" style="shape=umlLifeline;perimeter=lifelinePerimeter;whiteSpace=wrap;html=1;container=1;collapsible=0;recursiveResize=0;outlineConnect=0;rounded=1;shadow=0;comic=0;labelBackgroundColor=none;strokeWidth=1;fontFamily=Verdana;fontSize=12;align=center;" vertex="1" parent="1">
          <mxGeometry x="650" y="80" width="110" height="580" as="geometry" />
        </mxCell>
        <mxCell id="GgmhdhTbTPwPxOHPuyEN-8" value="Console&lt;br&gt;影像分析信息" style="html=1;points=[];perimeter=orthogonalPerimeter;rounded=0;shadow=0;comic=0;labelBackgroundColor=none;strokeWidth=1;fontFamily=Verdana;fontSize=12;align=center;" vertex="1" parent="GgmhdhTbTPwPxOHPuyEN-7">
          <mxGeometry x="10" y="332.5" width="90" height="50" as="geometry" />
        </mxCell>
        <mxCell id="GgmhdhTbTPwPxOHPuyEN-9" value="Main&lt;br&gt;右侧影像" style="html=1;points=[];perimeter=orthogonalPerimeter;rounded=0;shadow=0;comic=0;labelBackgroundColor=none;strokeWidth=1;fontFamily=Verdana;fontSize=12;align=center;" vertex="1" parent="1">
          <mxGeometry x="672.5" y="250" width="65" height="50" as="geometry" />
        </mxCell>
        <mxCell id="GgmhdhTbTPwPxOHPuyEN-19" value="loadApp" style="endArrow=open;endSize=12;dashed=1;html=1;exitX=0.5;exitY=1;exitDx=0;exitDy=0;" edge="1" parent="1" source="CF_FWANQ5Wj2ceeT_asj-18" target="GgmhdhTbTPwPxOHPuyEN-7">
          <mxGeometry width="160" relative="1" as="geometry">
            <mxPoint x="450" y="270" as="sourcePoint" />
            <mxPoint x="700" y="180" as="targetPoint" />
          </mxGeometry>
        </mxCell>
        <mxCell id="GgmhdhTbTPwPxOHPuyEN-20" value="连接BESocket&lt;br&gt;获取影像信息" style="ellipse;whiteSpace=wrap;html=1;" vertex="1" parent="1">
          <mxGeometry x="970" width="120" height="80" as="geometry" />
        </mxCell>
        <mxCell id="GgmhdhTbTPwPxOHPuyEN-23" value="webServer" style="rounded=1;whiteSpace=wrap;html=1;gradientColor=none;align=center;verticalAlign=middle;" vertex="1" parent="1">
          <mxGeometry x="910" y="110" width="70" height="90" as="geometry" />
        </mxCell>
        <mxCell id="GgmhdhTbTPwPxOHPuyEN-24" value="ws/api/wssurl&lt;br&gt;获取wssurl" style="endArrow=open;endSize=12;dashed=1;html=1;" edge="1" parent="1" source="GgmhdhTbTPwPxOHPuyEN-9" target="GgmhdhTbTPwPxOHPuyEN-23">
          <mxGeometry x="0.1996" y="20" width="160" relative="1" as="geometry">
            <mxPoint x="780" y="280" as="sourcePoint" />
            <mxPoint x="610" y="270" as="targetPoint" />
            <Array as="points">
              <mxPoint x="840" y="200" />
            </Array>
            <mxPoint as="offset" />
          </mxGeometry>
        </mxCell>
        <mxCell id="GgmhdhTbTPwPxOHPuyEN-26" value="return" style="html=1;verticalAlign=bottom;endArrow=open;dashed=1;endSize=8;" edge="1" parent="1" source="GgmhdhTbTPwPxOHPuyEN-23" target="GgmhdhTbTPwPxOHPuyEN-9">
          <mxGeometry x="-0.5787" y="-5" relative="1" as="geometry">
            <mxPoint x="570" y="260" as="sourcePoint" />
            <mxPoint x="738" y="264" as="targetPoint" />
            <Array as="points">
              <mxPoint x="920" y="220" />
            </Array>
            <mxPoint as="offset" />
          </mxGeometry>
        </mxCell>
        <mxCell id="GgmhdhTbTPwPxOHPuyEN-27" value="使用wssurl进行连接&lt;br&gt;获取对应appName的数据" style="endArrow=open;endSize=12;dashed=1;html=1;" edge="1" parent="1" source="GgmhdhTbTPwPxOHPuyEN-9" target="GgmhdhTbTPwPxOHPuyEN-20">
          <mxGeometry width="160" relative="1" as="geometry">
            <mxPoint x="720" y="220" as="sourcePoint" />
            <mxPoint x="880" y="220" as="targetPoint" />
            <Array as="points">
              <mxPoint x="830" y="120" />
            </Array>
          </mxGeometry>
        </mxCell>
        <mxCell id="GgmhdhTbTPwPxOHPuyEN-28" value="连接serviceSocket&lt;br&gt;处理socket消息&lt;br&gt;登录信息、错误信息等" style="ellipse;whiteSpace=wrap;html=1;" vertex="1" parent="1">
          <mxGeometry x="75" y="510" width="150" height="80" as="geometry" />
        </mxCell>
        <mxCell id="GgmhdhTbTPwPxOHPuyEN-29" value="MainLung&lt;br&gt;肺" style="html=1;points=[];perimeter=orthogonalPerimeter;rounded=0;shadow=0;comic=0;labelBackgroundColor=none;strokeWidth=1;fontFamily=Verdana;fontSize=12;align=center;" vertex="1" parent="1">
          <mxGeometry x="835" y="250" width="65" height="50" as="geometry" />
        </mxCell>
        <mxCell id="GgmhdhTbTPwPxOHPuyEN-30" value="" style="endArrow=classic;html=1;" edge="1" parent="1" source="GgmhdhTbTPwPxOHPuyEN-9" target="GgmhdhTbTPwPxOHPuyEN-29">
          <mxGeometry width="50" height="50" relative="1" as="geometry">
            <mxPoint x="850" y="360" as="sourcePoint" />
            <mxPoint x="900" y="310" as="targetPoint" />
          </mxGeometry>
        </mxCell>
        <mxCell id="GgmhdhTbTPwPxOHPuyEN-31" value="加载子组件" style="edgeLabel;html=1;align=center;verticalAlign=middle;resizable=0;points=[];" vertex="1" connectable="0" parent="GgmhdhTbTPwPxOHPuyEN-30">
          <mxGeometry x="-0.1429" y="-1" relative="1" as="geometry">
            <mxPoint x="11" y="-1" as="offset" />
          </mxGeometry>
        </mxCell>
        <mxCell id="GgmhdhTbTPwPxOHPuyEN-51" value="" style="endArrow=none;dashed=1;html=1;startArrow=none;" edge="1" parent="1" target="GgmhdhTbTPwPxOHPuyEN-29">
          <mxGeometry width="50" height="50" relative="1" as="geometry">
            <mxPoint x="871" y="355" as="sourcePoint" />
            <mxPoint x="871" y="285" as="targetPoint" />
          </mxGeometry>
        </mxCell>
        <mxCell id="GgmhdhTbTPwPxOHPuyEN-46" value="MainLungNodule&lt;br&gt;肺结节" style="html=1;points=[];perimeter=orthogonalPerimeter;rounded=0;shadow=0;comic=0;labelBackgroundColor=none;strokeWidth=1;fontFamily=Verdana;fontSize=12;align=center;" vertex="1" parent="1">
          <mxGeometry x="810" y="355" width="120" height="50" as="geometry" />
        </mxCell>
        <mxCell id="GgmhdhTbTPwPxOHPuyEN-52" value="" style="endArrow=none;dashed=1;html=1;startArrow=none;" edge="1" parent="1">
          <mxGeometry width="50" height="50" relative="1" as="geometry">
            <mxPoint x="871" y="435" as="sourcePoint" />
            <mxPoint x="871" y="405" as="targetPoint" />
          </mxGeometry>
        </mxCell>
        <mxCell id="GgmhdhTbTPwPxOHPuyEN-47" value="MainLungPneumonia&lt;br&gt;骨折" style="html=1;points=[];perimeter=orthogonalPerimeter;rounded=0;shadow=0;comic=0;labelBackgroundColor=none;strokeWidth=1;fontFamily=Verdana;fontSize=12;align=center;" vertex="1" parent="1">
          <mxGeometry x="800" y="435" width="140" height="50" as="geometry" />
        </mxCell>
        <mxCell id="GgmhdhTbTPwPxOHPuyEN-53" value="" style="endArrow=none;dashed=1;html=1;startArrow=none;" edge="1" parent="1">
          <mxGeometry width="50" height="50" relative="1" as="geometry">
            <mxPoint x="871" y="515" as="sourcePoint" />
            <mxPoint x="871" y="485" as="targetPoint" />
          </mxGeometry>
        </mxCell>
        <mxCell id="GgmhdhTbTPwPxOHPuyEN-48" value="MainLungFracture&lt;br&gt;炎症" style="html=1;points=[];perimeter=orthogonalPerimeter;rounded=0;shadow=0;comic=0;labelBackgroundColor=none;strokeWidth=1;fontFamily=Verdana;fontSize=12;align=center;" vertex="1" parent="1">
          <mxGeometry x="810" y="515" width="120" height="50" as="geometry" />
        </mxCell>
        <mxCell id="GgmhdhTbTPwPxOHPuyEN-57" value="MainLungContainer" style="rounded=1;whiteSpace=wrap;html=1;" vertex="1" parent="1">
          <mxGeometry x="970" y="300" width="120" height="45" as="geometry" />
        </mxCell>
        <mxCell id="GgmhdhTbTPwPxOHPuyEN-58" value="extends" style="endArrow=classic;html=1;" edge="1" parent="1" target="GgmhdhTbTPwPxOHPuyEN-57">
          <mxGeometry width="50" height="50" relative="1" as="geometry">
            <mxPoint x="870" y="323" as="sourcePoint" />
            <mxPoint x="1020" y="400" as="targetPoint" />
          </mxGeometry>
        </mxCell>
        <mxCell id="GgmhdhTbTPwPxOHPuyEN-59" value="" style="endArrow=none;dashed=1;html=1;" edge="1" parent="1" target="GgmhdhTbTPwPxOHPuyEN-57">
          <mxGeometry width="50" height="50" relative="1" as="geometry">
            <mxPoint x="1030" y="510" as="sourcePoint" />
            <mxPoint x="1020" y="400" as="targetPoint" />
          </mxGeometry>
        </mxCell>
        <mxCell id="GgmhdhTbTPwPxOHPuyEN-60" value="Cell&lt;br&gt;影像图" style="rounded=0;whiteSpace=wrap;html=1;" vertex="1" parent="1">
          <mxGeometry x="990" y="375" width="80" height="35" as="geometry" />
        </mxCell>
        <mxCell id="GgmhdhTbTPwPxOHPuyEN-61" value="获取影像Buffer" style="endArrow=open;endSize=12;dashed=1;html=1;exitX=0.5;exitY=1;exitDx=0;exitDy=0;" edge="1" parent="1" source="GgmhdhTbTPwPxOHPuyEN-20" target="GgmhdhTbTPwPxOHPuyEN-57">
          <mxGeometry width="160" relative="1" as="geometry">
            <mxPoint x="1040" y="100" as="sourcePoint" />
            <mxPoint x="610" y="260" as="targetPoint" />
          </mxGeometry>
        </mxCell>
        <mxCell id="GgmhdhTbTPwPxOHPuyEN-62" value="Use" style="endArrow=open;endSize=12;dashed=1;html=1;" edge="1" parent="1" source="GgmhdhTbTPwPxOHPuyEN-28">
          <mxGeometry width="160" relative="1" as="geometry">
            <mxPoint x="450" y="350" as="sourcePoint" />
            <mxPoint x="430" y="490" as="targetPoint" />
          </mxGeometry>
        </mxCell>
        <mxCell id="GgmhdhTbTPwPxOHPuyEN-63" value="socket消息处理" style="rounded=0;whiteSpace=wrap;html=1;" vertex="1" parent="1">
          <mxGeometry x="370" y="520" width="120" height="40" as="geometry" />
        </mxCell>
        <mxCell id="GgmhdhTbTPwPxOHPuyEN-65" value="" style="endArrow=none;dashed=1;html=1;" edge="1" parent="1" target="CF_FWANQ5Wj2ceeT_asj-18">
          <mxGeometry width="50" height="50" relative="1" as="geometry">
            <mxPoint x="551" y="540" as="sourcePoint" />
            <mxPoint x="560" y="130" as="targetPoint" />
          </mxGeometry>
        </mxCell>
        <mxCell id="GgmhdhTbTPwPxOHPuyEN-68" value="patientWrappers&lt;br&gt;病例信息" style="endArrow=open;endSize=12;dashed=1;html=1;" edge="1" parent="1" target="7baba1c4bc27f4b0-10">
          <mxGeometry width="160" relative="1" as="geometry">
            <mxPoint x="550" y="220" as="sourcePoint" />
            <mxPoint x="500" y="350" as="targetPoint" />
          </mxGeometry>
        </mxCell>
        <mxCell id="GgmhdhTbTPwPxOHPuyEN-70" value="选择并获取病例信息" style="endArrow=classic;html=1;" edge="1" parent="1" source="CF_FWANQ5Wj2ceeT_asj-2">
          <mxGeometry x="-0.7647" y="10" width="50" height="50" relative="1" as="geometry">
            <mxPoint x="400" y="370" as="sourcePoint" />
            <mxPoint x="550" y="360" as="targetPoint" />
            <mxPoint as="offset" />
          </mxGeometry>
        </mxCell>
        <mxCell id="GgmhdhTbTPwPxOHPuyEN-71" value="&lt;span style=&quot;font-size: 12px ; background-color: rgb(248 , 249 , 250)&quot;&gt;ws/app/propertyapp&lt;/span&gt;" style="edgeLabel;html=1;align=center;verticalAlign=middle;resizable=0;points=[];" vertex="1" connectable="0" parent="GgmhdhTbTPwPxOHPuyEN-70">
          <mxGeometry x="0.4392" y="-1" relative="1" as="geometry">
            <mxPoint as="offset" />
          </mxGeometry>
        </mxCell>
      </root>
    </mxGraphModel>
  </diagram>
</mxfile>
